<svg width="20" height="26" viewBox="0 0 20 26" fill="none" xmlns="http://www.w3.org/2000/svg">
<g clip-path="url(#clip0_7_42)">
<path d="M14.452 5.94926C12.6068 5.94926 11.096 7.08185 10.13 7.08185C9.10215 7.08185 7.7647 5.94926 6.1548 5.94926C3.09598 5.94926 0 8.56295 0 13.3423C0 16.3293 1.13932 19.4782 2.56346 21.5069C3.77709 23.2246 4.8421 24.606 6.37771 24.606C7.88853 24.606 8.55727 23.6228 10.4396 23.6228C12.3467 23.6228 12.7801 24.606 14.452 24.606C16.1115 24.606 17.2136 23.0752 18.2662 21.5691C19.4304 19.8391 19.9257 18.1589 19.9381 18.0718C19.8389 18.047 16.6687 16.7401 16.6687 13.0933C16.6687 9.93202 19.1578 8.51316 19.3065 8.40115C17.6594 6.02393 15.1455 5.94926 14.452 5.94926ZM13.5851 3.93298C14.3406 3.01196 14.873 1.7549 14.873 0.485399C14.873 0.311154 14.8607 0.136908 14.8359 0C13.5976 0.0497846 12.1114 0.821445 11.2322 1.86692C10.5263 2.66347 9.88234 3.93298 9.88234 5.20249C9.88234 5.40162 9.9195 5.58832 9.93188 5.65054C10.0062 5.663 10.13 5.68789 10.2662 5.68789C11.3684 5.68789 12.7554 4.94111 13.5851 3.93298Z" fill="black"/>
</g>
<defs>
<clipPath id="clip0_7_42">
<rect width="20" height="26" fill="white"/>
</clipPath>
</defs>
</svg>
